<?xml version="1.0" encoding="UTF-8" standalone="no"?>
<!DOCTYPE svg PUBLIC "-//W3C//DTD SVG 1.1//EN" "http://www.w3.org/Graphics/SVG/1.1/DTD/svg11.dtd">
<!-- Created with Vectornator (http://vectornator.io/) -->
<svg height="512.0px" stroke-miterlimit="10" style="fill-rule:nonzero;clip-rule:evenodd;stroke-linecap:round;stroke-linejoin:round;" version="1.1" viewBox="0 0 512 512" width="512.0px" xml:space="preserve" xmlns="http://www.w3.org/2000/svg" xmlns:xlink="http://www.w3.org/1999/xlink">
<defs>
<filter color-interpolation-filters="sRGB" filterUnits="userSpaceOnUse" height="207.707" id="Filter" width="207.708" x="147.754" y="91.6943">
<feDropShadow dx="-4.39618" dy="8.58453" flood-color="#ffffff" flood-opacity="1" in="SourceGraphic" result="Shadow" stdDeviation="33.8168"/>
</filter>
<path d="M191.534 95.911C191.534 76.0312 220.395 59.9155 255.996 59.9155C291.597 59.9155 320.458 76.0312 320.458 95.911C320.458 115.791 291.597 131.906 255.996 131.906C220.395 131.906 191.534 115.791 191.534 95.911Z" id="Fill"/>
</defs>
<g id="Слой-1">
<path d="M18.1256 104.94C18.1256 56.9962 56.9922 18.1296 104.936 18.1296L407.056 18.1296C455 18.1296 493.866 56.9962 493.866 104.94L493.866 407.06C493.866 455.004 455 493.87 407.056 493.87L104.936 493.87C56.9922 493.87 18.1256 455.004 18.1256 407.06L18.1256 104.94Z" fill="#40434c" fill-rule="nonzero" opacity="1" stroke="none"/>
<path d="M191.534 90.3702L191.534 391.617C191.534 425.012 218.607 452.085 252.002 452.085L259.998 452.085C293.393 452.085 320.466 425.012 320.466 391.617L320.466 90.3702C320.466 110.691 291.601 127.207 256 127.207C220.399 127.207 191.534 110.692 191.534 90.3702Z" fill="#edf4ec" fill-rule="nonzero" opacity="1" stroke="none"/>
<path d="M236.692 186.963C236.692 176.298 245.338 167.652 256.004 167.652C266.67 167.652 275.316 176.298 275.316 186.963C275.316 197.629 266.67 206.275 256.004 206.275C245.338 206.275 236.692 197.629 236.692 186.963Z" fill="#94c4ca" fill-rule="nonzero" filter="url(#Filter)" stroke="none"/>
<path d="M251.604 221.697C251.604 219.501 253.574 217.72 256.004 217.72C258.434 217.72 260.404 219.501 260.404 221.697C260.404 223.893 258.434 225.673 256.004 225.673C253.574 225.673 251.604 223.893 251.604 221.697Z" fill="#94c4ca" fill-rule="nonzero" opacity="1" stroke="none"/>
<path d="M58.9919 256C58.9919 250.962 63.0762 246.877 68.1145 246.877C73.1527 246.877 77.237 250.962 77.237 256C77.237 261.038 73.1527 265.123 68.1145 265.123C63.0762 265.123 58.9919 261.038 58.9919 256Z" fill="#edf4ec" fill-rule="nonzero" opacity="1" stroke="#edf4ec" stroke-linecap="butt" stroke-linejoin="round" stroke-width="1.88169"/>
<path d="M434.514 256C434.514 250.962 438.599 246.877 443.637 246.877C448.675 246.877 452.759 250.962 452.759 256C452.759 261.038 448.675 265.123 443.637 265.123C438.599 265.123 434.514 261.038 434.514 256Z" fill="#edf4ec" fill-rule="nonzero" opacity="1" stroke="#edf4ec" stroke-linecap="butt" stroke-linejoin="round" stroke-width="1.88169"/>
<path d="M128.754 256C128.754 248.96 134.461 243.253 141.501 243.253C148.542 243.253 154.249 248.96 154.249 256C154.249 263.04 148.542 268.747 141.501 268.747C134.461 268.747 128.754 263.04 128.754 256Z" fill="#edf4ec" fill-rule="nonzero" opacity="1" stroke="#edf4ec" stroke-linecap="butt" stroke-linejoin="round" stroke-width="2.62937"/>
<path d="M357.432 256C357.432 248.96 363.139 243.253 370.179 243.253C377.219 243.253 382.926 248.96 382.926 256C382.926 263.04 377.219 268.747 370.179 268.747C363.139 268.747 357.432 263.04 357.432 256Z" fill="#edf4ec" fill-rule="nonzero" opacity="1" stroke="#edf4ec" stroke-linecap="butt" stroke-linejoin="round" stroke-width="2.62937"/>
<g opacity="1">
<use fill="#40434c" fill-rule="nonzero" stroke="none" xlink:href="#Fill"/>
<mask height="71.991" id="StrokeMask" maskUnits="userSpaceOnUse" width="128.924" x="191.534" y="59.9155">
<rect fill="#000000" height="71.991" stroke="none" width="128.924" x="191.534" y="59.9155"/>
<use fill="#ffffff" fill-rule="evenodd" stroke="none" xlink:href="#Fill"/>
</mask>
<use fill="none" mask="url(#StrokeMask)" stroke="#edf4ec" stroke-linecap="butt" stroke-linejoin="round" stroke-width="10.561" xlink:href="#Fill"/>
</g>
<path d="M229.768 95.911C229.768 87.3404 241.514 80.3926 256.004 80.3926C270.494 80.3926 282.24 87.3404 282.24 95.911C282.24 104.482 270.494 111.429 256.004 111.429C241.514 111.429 229.768 104.482 229.768 95.911Z" fill="#40434c" fill-rule="nonzero" opacity="1" stroke="#edf4ec" stroke-linecap="butt" stroke-linejoin="round" stroke-width="5.28048"/>
<path d="M161.903 141.85C161.903 141.85 68.6158 183.675 68.1163 260.635C67.6169 337.595 168.276 370.15 168.276 370.15" fill="none" opacity="1" stroke="#edf4ec" stroke-dasharray="18.2" stroke-linecap="butt" stroke-linejoin="round" stroke-width="5.51237"/>
<path d="M204.727 179.048C204.727 179.048 141.839 207.244 141.503 259.125C141.166 311.006 209.024 332.952 209.024 332.952" fill="none" opacity="1" stroke="#edf4ec" stroke-dasharray="23.0" stroke-linecap="butt" stroke-linejoin="round" stroke-width="3.71606"/>
<path d="M306.953 179.048C306.953 179.048 369.841 207.244 370.178 259.125C370.514 311.006 302.657 332.952 302.657 332.952" fill="none" opacity="1" stroke="#edf4ec" stroke-dasharray="23.0" stroke-linecap="butt" stroke-linejoin="round" stroke-width="3.71606"/>
<path d="M349.849 141.85C349.849 141.85 443.136 183.675 443.635 260.635C444.134 337.595 343.475 370.15 343.475 370.15" fill="none" opacity="1" stroke="#edf4ec" stroke-dasharray="18.2" stroke-linecap="butt" stroke-linejoin="round" stroke-width="5.51237"/>
</g>
</svg>
